<?xml version="1.0" encoding="UTF-8"?>
<svg width="261px" height="261px" viewBox="0 0 261 261" version="1.1" xmlns="http://www.w3.org/2000/svg" xmlns:xlink="http://www.w3.org/1999/xlink">
    <!-- Generator: Sketch 52.1 (67048) - http://www.bohemiancoding.com/sketch -->
    <title>Facebook</title>
    <desc>Created with Sketch.</desc>
    <g id="Facebook" stroke="none" stroke-width="1" fill="none" fill-rule="evenodd">
        <path d="M130.5,261 C58.4268402,261 0,202.57316 0,130.5 C0,58.4268402 58.4268402,0 130.5,0 C202.57316,0 261,58.4268402 261,130.5 C261,202.57316 202.57316,261 130.5,261 Z M178.642869,38.3310441 C175.654029,37.8873627 165.359137,37 153.403778,37 C128.386083,37 111.22793,52.3070073 111.22793,80.3698541 L111.22793,104.550489 L83,104.550489 L83,137.38291 L111.22793,137.38291 L111.22793,221.571451 L145.101446,221.571451 L145.101446,137.38291 L173.218678,137.38291 L177.535891,104.550489 L145.101446,104.550489 L145.101446,83.586544 C145.101446,74.1583149 147.647495,67.6140147 161.26332,67.6140147 L178.642869,67.6140147 L178.642869,38.3310441 Z" id="logo" fill="#797F8B" fill-rule="nonzero"></path>
    </g>
</svg>