<?xml version="1.0" encoding="UTF-8"?>
<svg width="261px" height="261px" viewBox="0 0 261 261" version="1.1" xmlns="http://www.w3.org/2000/svg" xmlns:xlink="http://www.w3.org/1999/xlink">
    <!-- Generator: Sketch 52.1 (67048) - http://www.bohemiancoding.com/sketch -->
    <title>Twitter</title>
    <desc>Created with Sketch.</desc>
    <g id="Twitter" stroke="none" stroke-width="1" fill="none" fill-rule="evenodd">
        <path d="M130.5,261 C58.4268402,261 0,202.57316 0,130.5 C0,58.4268402 58.4268402,0 130.5,0 C202.57316,0 261,58.4268402 261,130.5 C261,202.57316 202.57316,261 130.5,261 Z M225.489312,71.3551875 C218.478919,74.3741328 210.864181,76.5477734 203.007706,77.3930781 C211.105919,72.5627656 217.27023,64.9550234 220.171083,55.8981875 C212.677214,60.3662266 204.216394,63.6266875 195.392968,65.3172969 C188.261706,57.7095547 178.108722,53 166.867919,53 C145.232394,53 127.827279,70.5098828 127.827279,92.0047734 C127.827279,95.0237188 128.189886,98.0426641 128.79423,100.940852 C96.4013774,99.2502422 67.5137215,83.7932422 48.2955738,60.1247109 C44.911246,65.9210859 42.9773443,72.5627656 42.9773443,79.8082344 C42.9773443,93.3331094 49.8668689,105.288133 60.3824592,112.292086 C53.9764099,112.05057 47.9329673,110.239203 42.7356066,107.341016 C42.7356066,107.461773 42.7356066,107.703289 42.7356066,107.824047 C42.7356066,126.783023 56.1520493,142.481539 74.0406396,146.104273 C70.7771805,146.949578 67.2719838,147.432609 63.766787,147.432609 C61.2285411,147.432609 58.8111641,147.191094 56.393787,146.82882 C61.34941,162.28582 75.7328035,173.516297 92.8961806,173.87857 C79.4797379,184.3845 62.6789674,190.543148 44.4277705,190.543148 C41.1643115,190.543148 38.1425902,190.422391 35,190.060117 C52.284246,201.169836 72.831951,207.57 94.9509511,207.57 C166.74705,207.57 206.029427,148.157156 206.029427,96.5935703 C206.029427,94.9029609 206.029427,93.2123516 205.908558,91.5217422 C213.523296,85.9668828 220.171083,79.0836875 225.489312,71.3551875 Z" id="logo" fill="#797F8B" fill-rule="nonzero"></path>
    </g>
</svg>