<?xml version="1.0" encoding="UTF-8"?>
<svg width="200px" height="108px" viewBox="0 0 200 108" version="1.1" xmlns="http://www.w3.org/2000/svg" xmlns:xlink="http://www.w3.org/1999/xlink">
    <!-- Generator: Sketch 52.1 (67048) - http://www.bohemiancoding.com/sketch -->
    <title>arrow-down</title>
    <desc>Created with Sketch.</desc>
    <g id="arrow-down" stroke="none" stroke-width="1" fill="none" fill-rule="evenodd">
        <path d="M0,6.51530109 C0,5.72556367 0.16452616,4.90293287 0.493583416,4.04738401 C0.822640671,3.19183514 1.31621915,2.43501481 1.97433366,1.7769003 C3.29056269,0.592294176 4.87001382,0 6.71273445,0 C8.55545508,0 10.1349062,0.592294176 11.4511352,1.7769003 L100.691017,91.0167818 L188.548865,3.15893386 C189.865094,1.84270484 191.444545,1.1846002 193.287266,1.1846002 C195.129986,1.1846002 196.709437,1.84270484 198.025666,3.15893386 C199.341895,4.47516288 200,6.05461402 200,7.89733465 C200,9.74005528 199.341895,11.3195064 198.025666,12.6357354 L105.429418,105.231984 C104.113189,106.548213 102.533737,107.206318 100.691017,107.206318 C98.8482962,107.206318 97.268845,106.548213 95.952616,105.231984 L1.97433366,11.4511352 C1.31621915,10.7930207 0.822640671,10.0362004 0.493583416,9.18065153 C0.16452616,8.32510267 0,7.4366614 0,6.51530109 Z" id="arrow" fill="#797F8B"></path>
    </g>
</svg>