<?xml version="1.0" encoding="UTF-8"?>
<svg width="200px" height="108px" viewBox="0 0 200 108" version="1.1" xmlns="http://www.w3.org/2000/svg" xmlns:xlink="http://www.w3.org/1999/xlink">
    <!-- Generator: Sketch 52.1 (67048) - http://www.bohemiancoding.com/sketch -->
    <title>arrow-up</title>
    <desc>Created with Sketch.</desc>
    <g id="arrow-up" stroke="none" stroke-width="1" fill="none" fill-rule="evenodd">
        <path d="M0,100.493583 C0,99.703846 0.16452616,98.8812152 0.493583416,98.0256663 C0.822640671,97.1701175 1.31621915,96.4132971 1.97433366,95.7551826 L95.952616,1.7769003 C97.268845,0.592294176 98.8482962,0 100.691017,0 C102.533737,0 104.113189,0.592294176 105.429418,1.7769003 L198.025666,94.5705824 C199.341895,95.8868115 200,97.4662626 200,99.3089832 C200,101.151704 199.341895,102.731155 198.025666,104.047384 C196.709437,105.363613 195.129986,106.021718 193.287266,106.021718 C191.444545,106.021718 189.865094,105.363613 188.548865,104.047384 L100.691017,16.189536 L11.4511352,105.231984 C10.1349062,106.548213 8.55545508,107.206318 6.71273445,107.206318 C4.87001382,107.206318 3.29056269,106.548213 1.97433366,105.231984 C1.31621915,104.57387 0.822640671,103.849955 0.493583416,103.060217 C0.16452616,102.27048 0,101.414944 0,100.493583 Z" id="arrow" fill="#797F8B"></path>
    </g>
</svg>